# Blender 4.2.12 LTS
# www.blender.org
mtllib zed_link.mtl
o zed_link
v 0.009752 0.071360 -0.103502
v 0.009752 0.056506 -0.019262
v 0.110250 0.071360 -0.103502
v 0.110250 -0.006305 -0.117197
v 0.110250 0.056506 -0.019262
v 0.009752 -0.021158 -0.032957
v 0.009752 -0.006305 -0.117197
v 0.110250 -0.021158 -0.032957
vn -0.0000 0.9848 0.1736
vn -0.0000 0.1736 -0.9848
vn 1.0000 -0.0000 -0.0000
vn -1.0000 -0.0000 -0.0000
vn -0.0000 -0.1736 0.9848
vn -0.0000 -0.9848 -0.1736
vt 0.482314 0.348447
s 0
usemtl 材质
f 1/1/1 2/1/1 3/1/1
f 4/1/2 1/1/2 3/1/2
f 3/1/1 2/1/1 5/1/1
f 5/1/3 4/1/3 3/1/3
f 1/1/4 6/1/4 2/1/4
f 7/1/2 1/1/2 4/1/2
f 7/1/4 6/1/4 1/1/4
f 2/1/5 6/1/5 5/1/5
f 8/1/3 4/1/3 5/1/3
f 5/1/5 6/1/5 8/1/5
f 8/1/6 7/1/6 4/1/6
f 6/1/6 7/1/6 8/1/6
